<?xml version="1.0" encoding="UTF-8"?>
<svg xmlns="http://www.w3.org/2000/svg" version="1.1" viewBox="0 0 1080 1080">
  <defs>
    <style>
      .cls-1 {
        fill: #6460aa;
      }
    </style>
  </defs>
  <!-- Generator: Adobe Illustrator 28.7.1, SVG Export Plug-In . SVG Version: 1.2.0 Build 142)  -->
  <g>
    <g id="Layer_1">
      <path class="cls-1" d="M365.93,945.11c-91.36-91.03-180.04-179.38-266.73-265.76,31.23-31.32,63.06-63.24,96.94-97.21,53.24,52.94,109.04,108.43,164.22,163.3,20.95-9.94,477.92-466.49,491.42-490.45-10.98-2.77-17.16,4.76-24.03,9.56-84.9,59.47-169.7,119.09-254.6,178.57-16.38,11.48-33.44,22.02-49.5,33.92-10.89,8.08-20.58,8.86-32.42,1.94-65.1-38.03-130.45-75.62-201.38-116.63,116.89-42.85,231.21-76.19,343.79-114.47,113.33-38.53,227.49-74.6,346.48-113.43-2.01,11.72-2.65,19.2-4.62,26.32-28.91,104.15-58.16,208.21-87.01,312.38-22.55,81.39-44.63,162.91-67.03,244.34-2.59,9.43-5.95,18.65-10.05,31.37-49.11-33.99-85.67-78.57-134.68-114.06-104.9,102.38-206.45,207.38-310.78,310.32Z"/>
    </g>
  </g>
</svg>